PathFileType	4	(X/Y/Z)	/Users/itak/Documents/Research/Walk-IL/dataset/trc/00556_00009.trc
DataRate	CameraRate	NumFrames	NumMarkers	Units	OrigDataRate	OrigDataStartFrame	OrigNumFrames
100.000000	100.000000	4	55	mm	100.000000	238	318
Frame#	Time	RPSI			LPSI			L3			STRN			T10			C7			CLAV			RBAK			LBAK			LSHO			LUPA			LAEL			LAOL			LWTS			LWPS			LFRA			LIFD			LHPS			LHTS			RSHO			RUPA			RAEL			RAOL			RWTS			RWPS			RFRA			RIFD			RHTS			RHPS			RBHD			LFHD			RFHD			LBHD			LHIP			RHIP			RASI			LASI			LKNE			LTHI			LANK			LTIP			LTOE			LMT1			LMT5			LHEE			RKNE			RTHI			RANK			RTIP			RTOE			RMT1			RMT5			RHEE			*53			*54			
		X1	Y1	Z1	X2	Y2	Z2	X3	Y3	Z3	X4	Y4	Z4	X5	Y5	Z5	X6	Y6	Z6	X7	Y7	Z7	X8	Y8	Z8	X9	Y9	Z9	X10	Y10	Z10	X11	Y11	Z11	X12	Y12	Z12	X13	Y13	Z13	X14	Y14	Z14	X15	Y15	Z15	X16	Y16	Z16	X17	Y17	Z17	X18	Y18	Z18	X19	Y19	Z19	X20	Y20	Z20	X21	Y21	Z21	X22	Y22	Z22	X23	Y23	Z23	X24	Y24	Z24	X25	Y25	Z25	X26	Y26	Z26	X27	Y27	Z27	X28	Y28	Z28	X29	Y29	Z29	X30	Y30	Z30	X31	Y31	Z31	X32	Y32	Z32	X33	Y33	Z33	X34	Y34	Z34	X35	Y35	Z35	X36	Y36	Z36	X37	Y37	Z37	X38	Y38	Z38	X39	Y39	Z39	X40	Y40	Z40	X41	Y41	Z41	X42	Y42	Z42	X43	Y43	Z43	X44	Y44	Z44	X45	Y45	Z45	X46	Y46	Z46	X47	Y47	Z47	X48	Y48	Z48	X49	Y49	Z49	X50	Y50	Z50	X51	Y51	Z51	X52	Y52	Z52	X53	Y53	Z53	X54	Y54	Z54	X55	Y55	Z55	

239	2.38	1115.029907226562	947.71533203125	428.0587768554688	1162.162841796875	940.8552856445312	304.9615478515625	1141.739013671875	1054.19580078125	362.2109680175781	1372.496704101562	1243.567016601562	416.3836669921875	1134.304931640625	1179.1025390625	367.3941955566406	1184.376831054688	1453.315063476562	400.7000732421875	1354.380493164062	1353.115356445312	413.6129455566406	1093.68212890625	1330.088745117188	466.5882873535156	1161.833984375	1403.463256835938	309.2937316894531	1267.340454101562	1431.752807617188	243.0588226318359	1233.624145507812	1327.792358398438	146.2518920898438	1190.506713867188	1143.125244140625	93.09068298339844	1101.990600585938	1116.073364257812	133.5972900390625	1384.481567382812	1019.324523925781	189.3600616455078	1378.010620117188	960.703125	124.8217849731445	1248.561279296875	1085.603515625	94.88083648681641	1478.864868164062	893.4033813476562	232.9271392822266	1421.552978515625	924.7671508789062	146.5887756347656	1450.342163085938	972.2645874023438	187.247314453125	1210.065551757812	1416.985473632812	555.06591796875	1172.293090820312	1361.427734375	618.6353149414062	1128.194213867188	1095.588623046875	698.3648071289062	1078.3623046875	1065.169677734375	672.6065673828125	1337.68798828125	960.7451171875	678.4220581054688	1299.74609375	913.6522827148438	733.3607177734375	1154.404907226562	1046.69287109375	708.1572875976562	1448.413208007812	837.0795288085938	701.4679565429688	1408.511108398438	910.38134765625	711.9627075195312	1356.726440429688	868.209228515625	745.2830810546875	1300.929321289062	1627.781616210938	497.6383361816406	1471.61669921875	1605.7822265625	380.7746887207031	1436.718383789062	1601.560302734375	521.4337768554688	1346.704467773438	1629.025756835938	338.8836059570312	1335.017333984375	884.368408203125	234.0998992919922	1197.6396484375	895.7100219726562	586.8159790039062	1293.00048828125	935.035888671875	561.2035522460938	1384.998046875	920.5400390625	304.4036254882812	1571.494384765625	520.3638305664062	334.3732299804688	1482.74462890625	655.84716796875	279.2071228027344	1640.960327148438	31.13940620422363	373.6982116699219	1599.809448242188	263.8438720703125	340.6898803710938	1827.9599609375	65.24143981933594	474.6856079101562	1749.879638671875	71.8140869140625	491.3397216796875	1760.216918945312	34.3791618347168	393.546630859375	1563.15478515625	43.72662353515625	405.2501831054688	1306.514892578125	455.084716796875	571.0885009765625	1258.346801757812	747.3242797851562	603.0879516601562	997.8438110351562	96.64580535888672	445.1051940917969	1248.315185546875	320.0326538085938	537.3125610351562	1207.6572265625	36.32406234741211	482.3362121582031	1167.01708984375	52.39210510253906	421.3057250976562	1104.784057617188	47.56447601318359	503.6954345703125	969.4332275390625	108.3298645019531	372.9208068847656	nan	nan	nan	nan	nan	nan	
240	2.39	1131.017944335938	946.4041748046875	429.3253479003906	1178.568969726562	939.7523193359375	306.3856811523438	1158.285278320312	1052.62646484375	362.9054870605469	1387.00830078125	1243.614990234375	418.7354736328125	1149.946899414062	1177.285766601562	367.7813415527344	1197.287231445312	1451.977172851562	400.6588745117188	1367.999267578125	1353.065063476562	415.4076232910156	1107.019287109375	1327.998168945312	466.0754699707031	1175.864624023438	1401.641235351562	309.1382751464844	1281.53857421875	1430.442749023438	243.8592987060547	1249.825927734375	1326.024291992188	146.81298828125	1209.087768554688	1140.978759765625	93.06674957275391	1120.460815429688	1113.063110351562	132.7007751464844	1403.1318359375	1018.901000976562	191.3752899169922	1397.830200195312	960.3234252929688	126.6458969116211	1267.609008789062	1083.97265625	95.51425170898438	1497.6376953125	893.8208618164062	235.8778533935547	1441.45947265625	924.7527465820312	148.8648834228516	1469.3974609375	972.4625244140625	189.8442230224609	1221.86767578125	1416.203491210938	555.4666137695312	1183.871704101562	1360.552978515625	618.812744140625	1141.064819335938	1094.52783203125	699.0411376953125	1091.6650390625	1063.807250976562	673.0133666992188	1351.325073242188	960.3777465820312	680.9844360351562	1313.025024414062	913.4292602539062	735.829833984375	1167.432373046875	1045.736206054688	709.1656494140625	1461.986450195312	836.7847290039062	705.2284545898438	1421.995483398438	910.20458984375	715.1309814453125	1370.05224609375	868.1490478515625	748.422607421875	1312.777709960938	1627.5537109375	498.3579406738281	1484.16259765625	1606.09765625	382.3528137207031	1448.542724609375	1601.7470703125	522.8314819335938	1359.416137695312	1628.903686523438	339.8507385253906	1352.019287109375	883.2583618164062	236.4132080078125	1212.87353515625	894.33154296875	588.6635131835938	1308.08544921875	933.8302612304688	563.4942016601562	1401.590576171875	919.4514770507812	307.2416076660156	1585.693115234375	517.9669189453125	338.8380432128906	1498.119140625	653.9401245117188	283.1822509765625	1643.1806640625	30.65372276306152	376.2315979003906	1608.246948242188	260.8801879882812	346.2911376953125	1832.060302734375	59.84446334838867	478.9398498535156	1753.08984375	66.86740112304688	495.1410827636719	1762.632690429688	34.08546829223633	395.4248352050781	1565.545776367188	40.98302841186523	408.7001037597656	1322.235717773438	453.9039611816406	574.7456665039062	1273.881958007812	745.9832153320312	605.1175537109375	1002.69970703125	106.4334487915039	448.8555603027344	1260.662963867188	321.03076171875	540.9757080078125	1209.151000976562	36.22281646728516	482.8705444335938	1169.19873046875	54.99567031860352	422.3832092285156	1107.805297851562	51.63097381591797	505.228759765625	974.3372192382812	120.3696975708008	376.9426574707031	nan	nan	nan	nan	nan	nan	
241	2.4	1146.287353515625	944.4703979492188	430.7707824707031	1194.154174804688	938.291259765625	307.9136047363281	1174.23681640625	1050.667114257812	363.8600463867188	1401.326904296875	1242.989868164062	421.2018432617188	1165.3564453125	1175.17529296875	368.1072692871094	1210.26953125	1450.363891601562	400.5751037597656	1381.55322265625	1352.378173828125	417.3748474121094	1120.2919921875	1325.613037109375	465.4646606445312	1190.011108398438	1399.596923828125	308.8372497558594	1296.016967773438	1428.665283203125	244.6632080078125	1266.652465820312	1323.570922851562	147.3913879394531	1228.638305664062	1138.220703125	92.99577331542969	1139.807983398438	1109.29052734375	131.4730224609375	1422.505004882812	1018.057495117188	193.9115142822266	1418.7265625	959.635498046875	128.8656616210938	1287.6943359375	1081.820068359375	96.27313232421875	1517.118774414062	893.9922485351562	239.5142364501953	1462.424438476562	924.4877319335938	151.6804809570312	1489.239135742188	972.410888671875	193.1136322021484	1233.6328125	1415.081787109375	555.9625854492188	1195.381225585938	1359.277099609375	619.0226440429688	1153.600219726562	1093.074096679688	699.5657348632812	1104.650634765625	1062.080322265625	673.1826171875	1364.486938476562	959.49560546875	683.5266723632812	1325.763305664062	912.6891479492188	738.2119140625	1180.082641601562	1044.356201171875	710.0266723632812	1475.040283203125	836.0292358398438	709.2109985351562	1434.910766601562	909.5493774414062	718.3973388671875	1382.783081054688	867.6068115234375	751.5667724609375	1324.605834960938	1627.010498046875	499.0559997558594	1496.68603515625	1606.1669921875	383.906005859375	1460.351440429688	1601.768310546875	524.2224731445312	1372.093383789062	1628.400268554688	340.7755737304688	1368.206665039062	881.9171752929688	238.3968048095703	1227.769409179688	892.3464965820312	590.53369140625	1322.769653320312	932.08935546875	565.5894165039062	1417.489624023438	918.0409545898438	309.7165832519531	1600.035400390625	515.9644775390625	343.2867431640625	1513.325561523438	652.3323974609375	287.1860961914062	1643.701904296875	30.57760620117188	378.0329284667969	1615.906005859375	258.1244812011719	351.7686767578125	1834.402465820312	54.70009231567383	482.63671875	1754.514282226562	62.01156997680664	498.3369750976562	1763.419311523438	34.08639526367188	396.6148071289062	1566.141845703125	38.44408416748047	411.5125427246094	1338.966064453125	452.5462036132812	578.9630126953125	1289.531616210938	744.2881469726562	607.2161254882812	1008.843627929688	117.012580871582	452.8608093261719	1274.2060546875	322.0346374511719	545.01806640625	1211.75634765625	36.34787368774414	483.8824768066406	1172.390869140625	58.10577774047852	423.9306945800781	1111.95361328125	56.86016082763672	507.3189392089844	980.5952758789062	132.9845581054688	381.2310791015625	nan	nan	nan	nan	nan	nan	
242	2.41	1160.73876953125	942.0299682617188	432.4129638671875	1208.857177734375	936.623046875	309.5401611328125	1189.41357421875	1048.467895507812	365.1649169921875	1415.36474609375	1241.792846679688	423.7662658691406	1180.365356445312	1172.932373046875	368.4580993652344	1223.303955078125	1448.6337890625	400.5296020507812	1394.989624023438	1351.165405273438	419.5116271972656	1133.452392578125	1323.136108398438	464.8630676269531	1204.20556640625	1397.48974609375	308.4872741699219	1310.71240234375	1426.574584960938	245.5188446044922	1284.005126953125	1320.592041015625	148.0806884765625	1249.112915039062	1135.006958007812	92.97521209716797	1160.001098632812	1104.9091796875	130.0166778564453	1442.509521484375	1016.846862792969	196.9979553222656	1440.59716796875	958.740966796875	131.5102081298828	1308.7548828125	1079.28955078125	97.23435211181641	1537.206420898438	893.9360961914062	243.7993927001953	1484.347900390625	924.05859375	155.0314483642578	1509.757202148438	972.1597290039062	197.0626678466797	1245.385986328125	1413.734252929688	556.6048583984375	1206.8701171875	1357.711791992188	619.3323974609375	1165.81396484375	1091.322265625	699.9537353515625	1117.324584960938	1060.094604492188	673.1217651367188	1377.162353515625	958.169677734375	686.0443725585938	1337.930908203125	911.4754028320312	740.4724731445312	1192.355712890625	1042.6376953125	710.7391967773438	1487.539916992188	834.852294921875	713.3792114257812	1447.23388671875	908.4579467773438	721.7608032226562	1394.882934570312	866.6206665039062	754.6849975585938	1336.453247070312	1626.252807617188	499.7561645507812	1509.204467773438	1606.047729492188	385.4354553222656	1472.170288085938	1601.692138671875	525.611328125	1384.7490234375	1627.596313476562	341.6749572753906	1383.47900390625	880.490478515625	240.0747222900391	1242.299438476562	889.8788452148438	592.4142456054688	1336.99755859375	929.9326782226562	567.4801025390625	1432.617797851562	916.48779296875	311.7933349609375	1614.335205078125	514.3950805664062	347.6047058105469	1528.229736328125	651.0550537109375	291.0332336425781	1643.323364257812	30.9173755645752	379.2975769042969	1623.1484375	255.8389587402344	356.8450622558594	1835.702270507812	50.0378532409668	485.7617492675781	1754.934204101562	57.64696884155273	500.9461669921875	1763.328369140625	34.31138229370117	397.3305969238281	1565.768920898438	36.44264602661133	413.7685546875	1356.568969726562	451.1599731445312	583.6065063476562	1303.596435546875	742.1763305664062	609.070068359375	1016.492858886719	128.0624237060547	457.0322875976562	1288.88720703125	323.1202392578125	549.3278198242188	1215.81787109375	36.87575912475586	485.5050354003906	1176.944946289062	61.72904586791992	426.0451354980469	1117.525512695312	63.10459518432617	510.0147399902344	988.3990478515625	145.7758941650391	385.6865844726562	nan	nan	nan	nan	nan	nan	
